#!OML:ASF H:\MichaelJackson\Top Level 1\Subject 1\Session 1\male.ASF
:FULLY-SPECIFIED
:DEGREES
483
root 5.77287 16.3771 -7.50299 -1.3465 -18.2837 7.02029
lowerback 6.27013 -0.136883 -7.31491
upperback 2.04022 -0.706513 -3.07571
thorax -1.35479 -0.36197 0.972971
lowerneck -6.67747 -8.1528 -1.02218
upperneck 12.1391 -11.418 3.76729
head 5.02521 -5.42172 0.587711
rclavicle -1.2275e-014 3.97569e-015
rhumerus 0.287568 8.18823 -61.9154
rradius 101.934
rwrist -22.1671
rhand -50.797 -60.9378
rfingers 7.12502
rthumb -23.3539 270.459
lclavicle -1.2275e-014 3.97569e-015
lhumerus -43.7017 -23.8137 95.4455
lradius 43.4441
lwrist 7.58601
lhand -6.36809 2.31661
lfingers 7.12502
lthumb 19.4785 31.3609
rfemur -73.7883 -32.3729 34.6168
rtibia 98.2092
rfoot 19.8311 -3.96987
rtoes 14.5751
lfemur -15.685 23.1822 -19.7
ltibia 41.9948
lfoot -20.5908 10.666
ltoes -13.8628
484
root 5.73045 16.3689 -7.44039 -1.46973 -18.8261 6.92693
lowerback 6.1235 -0.1644 -7.00089
upperback 2.12271 -0.701153 -2.93381
thorax -1.19059 -0.365353 0.943698
lowerneck -6.72841 -8.10579 -0.96086
upperneck 12.0643 -11.3227 3.51537
head 4.98954 -5.38851 0.509404
rclavicle 2.77305e-014 -5.96354e-015
rhumerus -0.264659 12.3487 -59.0593
rradius 102.675
rwrist -20.956
rhand -44.5576 -48.1923
rfingers 7.12502
rthumb -17.3579 282.563
lclavicle 2.77305e-014 -5.96354e-015
lhumerus -44.1844 -22.6051 95.178
lradius 43.958
lwrist 8.31306
lhand -7.83817 1.90274
lfingers 7.12502
lthumb 18.0645 31.0839
rfemur -73.0283 -32.0891 32.4824
rtibia 96.9896
rfoot 20.0507 -4.65564
rtoes 15.6241
lfemur -15.1475 23.1552 -19.3034
ltibia 42.0764
lfoot -20.7199 11.1755
ltoes -13.9903
485
root 5.68597 16.3593 -7.37796 -1.59313 -19.3924 6.79648
lowerback 5.99959 -0.201241 -6.59636
upperback 2.20822 -0.707097 -2.80877
thorax -1.03698 -0.37331 0.847348
lowerneck -6.76007 -8.03147 -0.865124
upperneck 11.9689 -11.1929 3.25632
head 4.9415 -5.33809 0.427503
rclavicle 5.98839e-014 -4.37326e-015
rhumerus -0.605666 16.1797 -56.3119
rradius 103.566
rwrist -19.5812
rhand -35.8713 -37.5682
rfingers 7.12502
rthumb -8.98557 292.643
lclavicle 5.98839e-014 -4.37326e-015
lhumerus -44.7611 -21.4618 94.8946
lradius 44.5042
lwrist 9.29941
lhand -9.61405 1.48054
lfingers 7.12502
lthumb 16.3553 30.8109
rfemur -72.0993 -31.6576 30.2917
rtibia 95.4957
rfoot 20.2011 -5.11567
rtoes 16.2328
lfemur -14.6027 23.1244 -18.8555
ltibia 42.1944
lfoot -20.8625 11.6925
ltoes -14.1085
486
root 5.63857 16.3482 -7.3161 -1.71459 -19.9748 6.63339
lowerback 5.895 -0.24063 -6.12355
upperback 2.2981 -0.71621 -2.69342
thorax -0.890832 -0.381723 0.702941
lowerneck -6.78464 -7.936 -0.735452
upperneck 11.8665 -11.0358 2.97548
head 4.88695 -5.27433 0.336221
rclavicle 3.59303e-014 1.98785e-015
rhumerus -0.691188 19.5063 -53.7485
rradius 104.573
rwrist -18.3532
rhand -24.59 -28.949
rfingers 7.12502
rthumb 1.90758 301.08
lclavicle 3.59303e-014 1.98785e-015
lhumerus -45.4026 -20.4058 94.6048
lradius 45.061
lwrist 10.5618
lhand -11.5402 1.10136
lfingers 7.12502
lthumb 14.5 30.5747
rfemur -71.0136 -31.0755 28.0645
rtibia 93.7429
rfoot 20.2726 -5.34821
rtoes 16.5392
lfemur -14.0535 23.0873 -18.3587
ltibia 42.3458
lfoot -21.0165 12.2094
ltoes -14.2246
